<svg xmlns="http://www.w3.org/2000/svg" version="1.1" xmlns:xlink="http://www.w3.org/1999/xlink" xmlns:svgjs="http://svgjs.dev/svgjs" width="2000" height="2250" viewBox="0 0 2000 2250"><g transform="matrix(1,0,0,1,0.00014687500004129106,0)"><svg viewBox="0 0 320 360" data-background-color="#fdf8f1" preserveAspectRatio="xMidYMid meet" height="2250" width="2000" xmlns="http://www.w3.org/2000/svg" xmlns:xlink="http://www.w3.org/1999/xlink"><g id="tight-bounds" transform="matrix(1,0,0,1,0.000023499999997511622,0)"><svg viewBox="0 0 320 360" height="360" width="320"><g><svg></svg></g><g><svg viewBox="0 0 320 360" height="360" width="320"><g><path transform="translate(-74.99272,-51.79039) scale(4.65793,4.65793)" d="M20.6 59.9l0.8 1-0.4-1.3c-0.1-0.6-0.8 0.1-0.4 0.3M21.5 59.3c0.3 0.5 0.6 1 0.6 1.5 0 0.7 0.6 1 1.1 1.2-0.7-0.8-1.1-3-1.7-2.7M59.9 16.9c1.7 0 3.3-0.2 5.1 0.2 4.4 1.1 8.1 3.3 10.6 6.4l7 11.2c0.3 2.8 0.9 5.9 0.8 9.3 0.7 0 0.6-1 1.4-1.2-0.8 2-1.2 4.5-1.4 7.4-0.5-1.6 0-4 0.1-5.3-0.7 1.1-1.1 0.3-1.1-0.2 0.1-0.8-0.3-0.7-0.6-1-1.1-1-1.8-2.1-2.6-3.8 0.5-1.3 0.6-3.2-1-4.2-0.5-0.3-1.1-0.8-1.4-1.6-0.4-1.1-1.1-2.4-0.9-4.1 0.1-0.5-1.5 1.1-2.4 0.4-3.9-2.7-7.8-5.8-12.5-8.4-2.5 0-4.3-0.9-5.2-2-0.8-1-0.2-2.3 1-2.4 0.7 0 1.5-0.2 2.1 0.2 0.1-0.4 0.5-0.9 1-0.9M50 14.6l0.2 0.1c1 0.2 1.5 1.6 2.6 1.1 0 0.7 0.1 1.4-0.1 1.9-0.3 0.8-1.2 0.8-1.9 0.8-6.7-0.4-10.6 2.4-14.7 4.8-1.1 0.7-2.3 1.2-3.2 2.1-4.3 4-9 7.7-10.1 15.1l-0.9 8.2c-0.1 0.9-1.1 1.8-0.9 2.9l0.7 4.9c-0.7-0.7-1.1 0.2-0.9 0.6 0.1 0.3 0.5 1.3 1.1 0.4 0.8 1.5 1.6 4.4 2.7 5.7 3.4 4 7.8 7.6 11.4 11.2 0.9-0.2 1.6-0.2 1.8-0.8 0.3 0.6-0.3 1.2-0.8 1.3 1.6 1 3.4 1.9 5.8 2.1 3.1 0.2 6 0.7 8.7 1.4 1.4-0.4 2.8-0.6 4.3-0.7 0.5 0 0.8-0.8 1.4-1l0.1-1c0.6 0.9 0.5-0.3 0.1-0.9 0.7 0.6 0.9 1.1 1.2 1.5 0-0.3 0.8-1.4 0.8-0.1l0.2-1.3c0.3-0.2 0.4 1.1 0.7 0.2 0.3-0.9 0.9-0.2 1.5-0.5-0.2 0.4-0.1 1.2 0.6 0.7l0.8-0.7c0.5 1.2 1.3 0.7 1.7 0.5 4.4-2.8 8.8-6.1 13-9.4l-0.1 1.3 0.5-1.6c0.5 0.5 0.9 0.1 1.1-0.2 0.6-1 1.4-2 2.7-2.9-1.6 4.3-3.5 7.7-5.9 10.5l-1 1.2c0 0.7-0.2 1.6-1 1.7-0.4 0.1-1.2-0.2-1.8 0.4-0.3 0.4 0.7 1.2-0.1 0.6-0.7-0.5-1.4 0-2.2 0.2-0.6 0.2 0.4 0.8 0.6 1.2 0.2 0.4 0.4 0.8 0.3 1.3l-1.1-1.2c-1.3 0.7-2.1 2-3.2 3-0.5 0.4-0.3 1.1-0.3 1.7-0.7 0-1.5-0.2-1.9 0.2-0.3 0.4-0.2 1-0.2 1.6-1-0.1-1.1-1.6-2-1.3-0.9 0.2-1.9 0.3-2.7 0.8 0.6 1.2-1 0.5-0.8 0.7-1.5-0.9-2.8-1.6-4.4-1-3.4-1.1-7.6-0.6-10.7-0.2 0-0.5 0.1-1-0.1-1.1-0.2 0.5-0.8 0.3-0.7 0.3-1.9-1.3-3.8-2.1-5.8-3.2-1.8 0.2-3.5-0.7-4-1.2-1.4-1.3-3-0.6-4.3-0.9-2.8-0.7-3.8-3.6-4.1-5.6-0.2-1-1-1.4-1.3-1.3-1.3-4.2-3.3-8-4.9-11.9-0.4-1-0.3-2-0.3-3.1 0.5 0.2 1 0.1 0.9-0.6-0.5-3.3-1.7-5.8-3-8.2 0.7-3.4 0.8-7.4 2.4-10.4 1.4-2.7 4-4.1 5.8-6.4 0.6-0.8 0.6-1.9 1.2-2.6 2-2 4-4.1 6.2-5.9 1-0.8 2.2 0 3.7-0.3 0.5-1.8 2.5-3.4 4.4-2.9 0.8 0.2 2.4-1.9 2.9-2.1 0.8-0.3 0.4 0.8 0.4 1.5 1.9-1.5 4.5-2.3 6.9-3.2" fill="#fa3737" fill-rule="nonzero" stroke="none" stroke-width="1" stroke-linecap="butt" stroke-linejoin="miter" stroke-miterlimit="10" stroke-dasharray="" stroke-dashoffset="0" font-family="none" font-weight="none" font-size="none" text-anchor="none" style="mix-blend-mode: normal" data-fill-palette-color="tertiary"></path></g><g transform="matrix(1,0,0,1,64,152.7169208812164)"><svg viewBox="0 0 192 54.56615823756722" height="54.56615823756722" width="192"><g><svg viewBox="0 0 267.054211320831 75.8964705882353" height="54.56615823756722" width="192"><g><svg viewBox="0 0 192 75.8964705882353" height="75.8964705882353" width="192"><g id="textblocktransform"><svg viewBox="0 0 192 75.8964705882353" height="75.8964705882353" width="192" id="textblock"><g><svg viewBox="0 0 192 75.8964705882353" height="75.8964705882353" width="192"><g transform="matrix(1,0,0,1,0,0)"><svg width="192" viewBox="-1.1 -33.3 85 33.599999999999994" height="75.8964705882353" data-palette-color="#fa4238"><path d="M12.1-8.2L17.55-27Q17.65-27.3 17.65-27.8L17.65-27.8Q17.65-28.6 17.23-29.1 16.8-29.6 15.9-30.2L15.9-30.2Q15.15-30.75 14.83-31.15 14.5-31.55 14.65-32.1L14.65-32.1Q14.8-32.8 15.4-33.05 16-33.3 17.3-33.3L17.3-33.3 31.5-33.3Q32.55-33.3 33.13-32.95 33.7-32.6 33.7-32.05L33.7-32.05Q33.7-31.8 33.55-31.4L33.55-31.4Q33.4-31.05 33.13-30.78 32.85-30.5 32.63-30.38 32.4-30.25 32.3-30.15L32.3-30.15Q31.5-29.7 31-29.15 30.5-28.6 30.15-27.45L30.15-27.45 25.25-10.15Q23.75-4.85 20.15-2.27 16.55 0.3 10.8 0.3L10.8 0.3Q6.95 0.3 4.28-0.83 1.6-1.95 0.25-3.85-1.1-5.75-1.1-8L-1.1-8Q-1.1-9.1-0.8-10.15L-0.8-10.15Q-0.15-12.4 1.43-13.55 3-14.7 4.95-14.7L4.95-14.7Q7.2-14.7 8.4-13.35 9.6-12 9.6-9.9L9.6-9.9Q9.6-8.85 9.3-7.8L9.3-7.8Q8.7-5.7 7.05-4.7L7.05-4.7Q7.85-4.2 8.9-4.2L8.9-4.2Q9.95-4.2 10.75-5.25 11.55-6.3 12.1-8.2L12.1-8.2ZM81.7-33.3Q82.75-33.3 83.32-32.98 83.9-32.65 83.9-32.05L83.9-32.05Q83.9-31.8 83.75-31.4L83.75-31.4Q83.6-30.95 83.32-30.73 83.05-30.5 82.5-30.15L82.5-30.15Q81.7-29.7 81.22-29.15 80.75-28.6 80.4-27.45L80.4-27.45 74.3-5.95Q74.1-5.3 74.1-4.7L74.1-4.7Q74.1-4.15 74.27-3.78 74.45-3.4 74.75-2.9L74.75-2.9Q74.95-2.65 75.1-2.38 75.25-2.1 75.25-1.8L75.25-1.8Q75.25-1.7 75.15-1.3L75.15-1.3Q74.95-0.65 74.22-0.35 73.5-0.05 72.15-0.05L72.15-0.05 60.4-0.05Q59.35-0.05 58.77-0.4 58.2-0.75 58.2-1.35L58.2-1.35Q58.2-1.65 58.35-2L58.35-2Q58.5-2.35 58.77-2.63 59.05-2.9 59.27-3.03 59.5-3.15 59.6-3.25L59.6-3.25Q60.4-3.7 60.9-4.25 61.4-4.8 61.75-5.95L61.75-5.95 65.55-19.45 52.6-3.4Q51-1.45 50.02-0.73 49.05 0 47.8 0L47.8 0Q46.6 0 45.92-0.78 45.25-1.55 44.7-3.4L44.7-3.4 40-18.85 36.3-5.9Q36.1-5.25 36.1-4.65L36.1-4.65Q36.1-4.05 36.27-3.65 36.45-3.25 36.8-2.8L36.8-2.8Q37.25-2.15 37.25-1.75L37.25-1.75Q37.25-1.65 37.15-1.25L37.15-1.25Q36.95-0.55 36.25-0.28 35.55 0 34.15 0L34.15 0 30 0Q28.95 0 28.37-0.35 27.8-0.7 27.8-1.3L27.8-1.3Q27.8-1.6 27.95-1.95L27.95-1.95Q28.15-2.5 28.6-2.8 29.05-3.1 29.15-3.15L29.15-3.15Q29.95-3.65 30.45-4.17 30.95-4.7 31.3-5.9L31.3-5.9 37.4-27.5 36.6-30.15Q36.35-30.9 36.35-31.6L36.35-31.6Q36.35-32.5 36.92-32.9 37.5-33.3 38.7-33.3L38.7-33.3 46.45-33.3Q47.95-33.3 48.67-32.65 49.4-32 49.85-30.4L49.85-30.4 54.85-13.8 68.4-30.65Q69.7-32.25 70.95-32.77 72.2-33.3 74.25-33.3L74.25-33.3 81.7-33.3Z" opacity="1" transform="matrix(1,0,0,1,0,0)" fill="#fa4238" class="wordmark-text-0" data-fill-palette-color="primary" id="text-0"></path></svg></g></svg></g></svg></g></svg></g><g transform="matrix(1,0,0,1,203.07511657411766,5.957113976470584)"><svg viewBox="0 0 63.97909474671335 63.982242635294135" height="63.982242635294135" width="63.97909474671335"><g><svg xmlns="http://www.w3.org/2000/svg" xmlns:xlink="http://www.w3.org/1999/xlink" version="1.1" x="0" y="0" viewBox="0.35833249999999595 0.3587183000000067 89.28326340000001 89.2876563" enable-background="new 0 0 90 90" xml:space="preserve" height="63.982242635294135" width="63.97909474671335" class="icon-icon-0" data-fill-palette-color="accent" id="icon-0"><polygon points="57.928,58.169 57.875,76.027 45.397,63.548 45.397,45.639 " fill="#fa4037" data-fill-palette-color="accent"></polygon><polygon points="76.027,57.875 58.475,57.927 45.826,45.279 63.432,45.279 " fill="#fa4037" data-fill-palette-color="accent"></polygon><polygon points="76.027,32.125 63.432,44.721 45.707,44.721 58.355,32.073 " fill="#fa4037" data-fill-palette-color="accent"></polygon><polygon points="44.838,45.59 44.838,63.314 32.125,76.027 32.074,58.355 " fill="#fa4037" data-fill-palette-color="accent"></polygon><polygon points="57.928,31.712 45.397,44.243 45.397,26.452 57.875,13.974 " fill="#fa4037" data-fill-palette-color="accent"></polygon><polygon points="44.838,26.687 44.838,44.291 32.074,31.526 32.125,13.974 " fill="#fa4037" data-fill-palette-color="accent"></polygon><polygon points="44.479,44.721 26.569,44.721 13.974,32.125 31.832,32.073 " fill="#fa4037" data-fill-palette-color="accent"></polygon><polygon points="44.36,45.279 31.712,57.927 13.974,57.875 26.569,45.279 " fill="#fa4037" data-fill-palette-color="accent"></polygon><rect x="58.48" y="58.48" width="18.049" height="18.049" fill="#fa4037" data-fill-palette-color="accent"></rect><polygon points="76.527,13.474 76.527,31.516 58.914,31.516 58.912,31.518 58.484,31.516 58.484,13.474 " fill="#fa4037" data-fill-palette-color="accent"></polygon><polygon points="31.518,30.971 31.516,31.516 13.474,31.516 13.474,13.474 31.516,13.474 31.516,30.968 " fill="#fa4037" data-fill-palette-color="accent"></polygon><rect x="13.471" y="58.48" width="18.05" height="18.049" fill="#fa4037" data-fill-palette-color="accent"></rect><rect x="67.864" y="35.981" transform="matrix(0.7071 -0.7071 0.7071 0.7071 -9.3022 67.5465)" width="18.042" height="18.042" fill="#fa4037" data-fill-palette-color="accent"></rect><rect x="35.979" y="4.094" transform="matrix(0.7071 -0.7071 0.7071 0.7071 3.9068 35.6621)" width="18.042" height="18.042" fill="#fa4037" data-fill-palette-color="accent"></rect><rect x="4.095" y="35.98" transform="matrix(0.7071 -0.7071 0.7071 0.7071 -27.9787 22.4536)" width="18.041" height="18.041" fill="#fa4037" data-fill-palette-color="accent"></rect><rect x="35.98" y="67.865" transform="matrix(0.7071 -0.7071 0.7071 0.7071 -41.1877 54.3437)" width="18.04" height="18.041" fill="#fa4037" data-fill-palette-color="accent"></rect></svg></g></svg></g></svg></g></svg></g></svg></g><defs></defs></svg><rect width="320" height="360" fill="none" stroke="none" visibility="hidden"></rect></g></svg></g></svg>